# xmcd CD database file
#
# Track frame offsets:
#	150
#	19598
#	35845
#	52311
#	75176
#	97204
#	108602
#	131695
#
# Disc length: 2229 seconds
#
# Revision: 4
# Processed by: cddbd v1.5.2PL0 Copyright (c) Steve Scherf et al.
# Submitted via: CDex 1.78
#
DISCID=6b08b308
DTITLE=Status Quo - Status Quo (Deluxe Edition)  CD1
DYEAR=2015
DGENRE=Rock
TTITLE0=Backwater
TTITLE1=Just Take Me
TTITLE2=Breaking the Rules
TTITLE3=Drifting Away
TTITLE4=Don't Think it Matters
TTITLE5=Fine Fine Fine
TTITLE6=Lonely Man
TTITLE7=Slow Train
EXTD=YEAR: 2015
EXTT0=
EXTT1=
EXTT2=
EXTT3=
EXTT4=
EXTT5=
EXTT6=
EXTT7=
PLAYORDER=
